<?xml version="1.0" encoding="utf-8"?>
<svg id="Layer_1" data-name="Layer 1" height="2.25rem" viewBox="0 0 275 275" xmlns="http://www.w3.org/2000/svg" xmlns:bx="https://boxy-svg.com">
  <defs>
    <style>
            .cls-1{fill:url(#linear-gradient);}
            .cls-2{fill:url(#linear-gradient-2);}
        </style>
    <linearGradient id="linear-gradient" x1="178.68" y1="266.19" x2="178.68" y2="105.22" gradientUnits="userSpaceOnUse" gradientTransform="matrix(0.992728, 0, 0, 0.994802, 1.620458, 1.404889)">
      <stop offset="0" stop-color="#0042e3"/>
      <stop offset="1" stop-color="#008aea"/>
    </linearGradient>
    <linearGradient id="linear-gradient-2" x1="96.32" y1="9.98" x2="96.32" y2="151.91" gradientUnits="userSpaceOnUse">
      <stop offset="0" stop-color="#01e9ff"/>
      <stop offset="1" stop-color="#10a9ff"/>
    </linearGradient>
  </defs>
  <path d="M 166.516 5.313 L 166.516 165.895 L 30.665 165.895 L 166.516 5.313 Z" style="stroke: rgb(0, 0, 0); fill: rgb(255, 255, 255);" bx:shape="triangle 30.665 5.313 135.851 160.582 1 0 1@ab0979d3"/>
  <path class="cls-1" d="M 256.901 107.451 C 254.867 102.921 250.372 100.005 245.415 100 L 151.046 100 L 151.046 151.143 L 100 151.143 L 100 262.342 C 99.988 272.06 110.479 278.146 118.883 273.298 C 120.059 272.619 121.117 271.755 122.019 270.738 L 254.826 121.01 C 258.112 117.29 258.923 111.987 256.901 107.451 Z" style="stroke-miterlimit: 1;"/>
  <path class="cls-2" d="M168.09,1a12.67,12.67,0,0,0-14.36,3.28L19.94,154.78a12.72,12.72,0,0,0-.85,15.79,13,13,0,0,0,10.66,5.32h126.5a19.64,19.64,0,0,0,19.64-19.64V13.07A13,13,0,0,0,168.09,1ZM150.52,150.52H57.68L99.1,103.91l4.28-4.8,47.14-53Z"/>
</svg>